<svg width="33" height="32" viewBox="0 0 33 32" fill="none" xmlns="http://www.w3.org/2000/svg">
<path d="M20.5 28V17.3333C20.5 16.9797 20.3595 16.6406 20.1095 16.3905C19.8594 16.1405 19.5203 16 19.1667 16H13.8333C13.4797 16 13.1406 16.1405 12.8905 16.3905C12.6405 16.6406 12.5 16.9797 12.5 17.3333V28" stroke="#ffffff" stroke-width="2" stroke-linecap="round" stroke-linejoin="round"/>
<path d="M4.5 13.3335C4.49991 12.9455 4.58445 12.5623 4.74772 12.2104C4.91099 11.8585 5.14906 11.5465 5.44533 11.2961L14.7787 3.29745C15.26 2.89067 15.8698 2.66748 16.5 2.66748C17.1302 2.66748 17.74 2.89067 18.2213 3.29745L27.5547 11.2961C27.8509 11.5465 28.089 11.8585 28.2523 12.2104C28.4156 12.5623 28.5001 12.9455 28.5 13.3335V25.3335C28.5 26.0407 28.219 26.719 27.719 27.2191C27.2189 27.7192 26.5406 28.0001 25.8333 28.0001H7.16667C6.45942 28.0001 5.78115 27.7192 5.28105 27.2191C4.78095 26.719 4.5 26.0407 4.5 25.3335V13.3335Z" stroke="#ffffff" stroke-width="2" stroke-linecap="round" stroke-linejoin="round"/>
</svg>
