<svg width="32" height="32" viewBox="0 0 32 32" fill="none" xmlns="http://www.w3.org/2000/svg">
<path d="M16 29.3333C14.1556 29.3333 12.4222 28.9831 10.8 28.2826C9.1778 27.5822 7.76669 26.6324 6.56669 25.4333C5.36669 24.2342 4.41691 22.8231 3.71736 21.2C3.0178 19.5768 2.66758 17.8435 2.66669 16C2.6658 14.1564 3.01602 12.4231 3.71736 10.8C4.41869 9.17685 5.36847 7.76574 6.56669 6.56663C7.76491 5.36752 9.17602 4.41774 10.8 3.71729C12.424 3.01685 14.1574 2.66663 16 2.66663C17.8427 2.66663 19.576 3.01685 21.2 3.71729C22.824 4.41774 24.2351 5.36752 25.4334 6.56663C26.6316 7.76574 27.5818 9.17685 28.284 10.8C28.9862 12.4231 29.336 14.1564 29.3334 16V17.9333C29.3334 19.2444 28.8836 20.3613 27.984 21.284C27.0845 22.2066 25.9787 22.6675 24.6667 22.6666C23.8889 22.6666 23.1556 22.5 22.4667 22.1666C21.7778 21.8333 21.2 21.3555 20.7334 20.7333C20.0889 21.3777 19.3609 21.8613 18.5494 22.184C17.7378 22.5066 16.888 22.6675 16 22.6666C14.1556 22.6666 12.5836 22.0164 11.284 20.716C9.98447 19.4155 9.33424 17.8435 9.33336 16C9.33247 14.1564 9.98269 12.5844 11.284 11.284C12.5854 9.98352 14.1574 9.33329 16 9.33329C17.8427 9.33329 19.4151 9.98352 20.7174 11.284C22.0196 12.5844 22.6694 14.1564 22.6667 16V17.9333C22.6667 18.5111 22.8556 19 23.2334 19.4C23.6111 19.8 24.0889 20 24.6667 20C25.2445 20 25.7222 19.8 26.1 19.4C26.4778 19 26.6667 18.5111 26.6667 17.9333V16C26.6667 13.0222 25.6334 10.5 23.5667 8.43329C21.5 6.36663 18.9778 5.33329 16 5.33329C13.0222 5.33329 10.5 6.36663 8.43336 8.43329C6.36669 10.5 5.33336 13.0222 5.33336 16C5.33336 18.9777 6.36669 21.5 8.43336 23.5666C10.5 25.6333 13.0222 26.6666 16 26.6666H21.3334C21.7111 26.6666 22.028 26.7946 22.284 27.0506C22.54 27.3066 22.6676 27.6231 22.6667 28C22.6658 28.3768 22.5378 28.6937 22.2827 28.9506C22.0276 29.2075 21.7111 29.3351 21.3334 29.3333H16ZM16 20C17.1111 20 18.0556 19.6111 18.8334 18.8333C19.6111 18.0555 20 17.1111 20 16C20 14.8888 19.6111 13.9444 18.8334 13.1666C18.0556 12.3888 17.1111 12 16 12C14.8889 12 13.9445 12.3888 13.1667 13.1666C12.3889 13.9444 12 14.8888 12 16C12 17.1111 12.3889 18.0555 13.1667 18.8333C13.9445 19.6111 14.8889 20 16 20Z" fill="#585F67"/>
</svg>
