<svg width="33" height="32" viewBox="0 0 33 32" fill="none" xmlns="http://www.w3.org/2000/svg">
<path d="M20.5 2.66675H12.5C11.7636 2.66675 11.1666 3.2637 11.1666 4.00008V6.66675C11.1666 7.40313 11.7636 8.00008 12.5 8.00008H20.5C21.2363 8.00008 21.8333 7.40313 21.8333 6.66675V4.00008C21.8333 3.2637 21.2363 2.66675 20.5 2.66675Z" stroke="white" stroke-width="2" stroke-linecap="round" stroke-linejoin="round"/>
<path d="M21.8334 5.33325H24.5C25.2073 5.33325 25.8856 5.6142 26.3857 6.1143C26.8858 6.6144 27.1667 7.29267 27.1667 7.99992V26.6666C27.1667 27.3738 26.8858 28.0521 26.3857 28.5522C25.8856 29.0523 25.2073 29.3333 24.5 29.3333H8.50004C7.7928 29.3333 7.11452 29.0523 6.61442 28.5522C6.11433 28.0521 5.83337 27.3738 5.83337 26.6666V7.99992C5.83337 7.29267 6.11433 6.6144 6.61442 6.1143C7.11452 5.6142 7.7928 5.33325 8.50004 5.33325H11.1667" stroke="white" stroke-width="2" stroke-linecap="round" stroke-linejoin="round"/>
<path d="M12.5 18.6667L15.1667 21.3333L20.5 16" stroke="white" stroke-width="2" stroke-linecap="round" stroke-linejoin="round"/>
</svg>
