<svg width="58" height="57" viewBox="0 0 58 57" fill="none" xmlns="http://www.w3.org/2000/svg">
<path d="M29.0001 51.6667C41.8867 51.6667 52.3334 41.22 52.3334 28.3333C52.3334 15.4467 41.8867 5 29.0001 5C16.1134 5 5.66675 15.4467 5.66675 28.3333C5.66675 41.22 16.1134 51.6667 29.0001 51.6667Z" stroke="#585F67" stroke-width="2" stroke-linecap="round" stroke-linejoin="round"/>
<path d="M43.1668 30.6943C42.6035 34.0292 40.8656 37.0525 38.2674 39.2177C35.6691 41.3829 32.382 42.5471 29.0002 42.4999C25.6183 42.5471 22.3312 41.3829 19.733 39.2177C17.1347 37.0525 15.3969 34.0292 14.8335 30.6943H43.1668Z" stroke="#585F67" stroke-width="2" stroke-linecap="round" stroke-linejoin="round"/>
<path d="M21.9167 21.25H21.9406" stroke="#585F67" stroke-width="2" stroke-linecap="round" stroke-linejoin="round"/>
<path d="M36.0835 21.25H36.1073" stroke="#585F67" stroke-width="2" stroke-linecap="round" stroke-linejoin="round"/>
</svg>
