<svg width="33" height="32" viewBox="0 0 33 32" fill="none" xmlns="http://www.w3.org/2000/svg">
<path d="M16.5 9.33325V27.9999" stroke="#585F67" stroke-width="2" stroke-linecap="round" stroke-linejoin="round"/>
<path d="M21.8334 16H24.5" stroke="#585F67" stroke-width="2" stroke-linecap="round" stroke-linejoin="round"/>
<path d="M21.8334 10.6667H24.5" stroke="#585F67" stroke-width="2" stroke-linecap="round" stroke-linejoin="round"/>
<path d="M4.49996 24C4.14634 24 3.8072 23.8595 3.55715 23.6095C3.3071 23.3594 3.16663 23.0203 3.16663 22.6667V5.33333C3.16663 4.97971 3.3071 4.64057 3.55715 4.39052C3.8072 4.14048 4.14634 4 4.49996 4H11.1666C12.5811 4 13.9377 4.5619 14.9379 5.5621C15.9381 6.56229 16.5 7.91885 16.5 9.33333C16.5 7.91885 17.0619 6.56229 18.0621 5.5621C19.0622 4.5619 20.4188 4 21.8333 4H28.5C28.8536 4 29.1927 4.14048 29.4428 4.39052C29.6928 4.64057 29.8333 4.97971 29.8333 5.33333V22.6667C29.8333 23.0203 29.6928 23.3594 29.4428 23.6095C29.1927 23.8595 28.8536 24 28.5 24H20.5C19.4391 24 18.4217 24.4214 17.6715 25.1716C16.9214 25.9217 16.5 26.9391 16.5 28C16.5 26.9391 16.0785 25.9217 15.3284 25.1716C14.5782 24.4214 13.5608 24 12.5 24H4.49996Z" stroke="#585F67" stroke-width="2" stroke-linecap="round" stroke-linejoin="round"/>
<path d="M8.5 16H11.1667" stroke="#585F67" stroke-width="2" stroke-linecap="round" stroke-linejoin="round"/>
<path d="M8.5 10.6667H11.1667" stroke="#585F67" stroke-width="2" stroke-linecap="round" stroke-linejoin="round"/>
</svg>
