<svg width="32" height="33" viewBox="0 0 32 33" fill="none" xmlns="http://www.w3.org/2000/svg">
<path d="M8.00001 25.8335V13.8335C8.00001 11.7118 8.84287 9.67693 10.3432 8.17664C11.8434 6.67635 13.8783 5.8335 16 5.8335C18.1217 5.8335 20.1566 6.67635 21.6569 8.17664C23.1572 9.67693 24 11.7118 24 13.8335V25.8335M8.00001 25.8335H24M8.00001 25.8335H5.33334M24 25.8335H26.6667M14.6667 29.8335H17.3333" stroke="#585F67" stroke-width="2.66667" stroke-linecap="round" stroke-linejoin="round"/>
<path d="M16 5.83341C16.7364 5.83341 17.3334 5.23646 17.3334 4.50008C17.3334 3.7637 16.7364 3.16675 16 3.16675C15.2636 3.16675 14.6667 3.7637 14.6667 4.50008C14.6667 5.23646 15.2636 5.83341 16 5.83341Z" stroke="#585F67" stroke-width="2.66667"/>
</svg>
