<svg width="32" height="32" viewBox="0 0 32 32" fill="none" xmlns="http://www.w3.org/2000/svg">
<path d="M24 10.6667H22.6666V8.00004C22.6666 4.32004 19.68 1.33337 16 1.33337C12.32 1.33337 9.33331 4.32004 9.33331 8.00004V10.6667H7.99998C6.53331 10.6667 5.33331 11.8667 5.33331 13.3334V26.6667C5.33331 28.1334 6.53331 29.3334 7.99998 29.3334H24C25.4666 29.3334 26.6666 28.1334 26.6666 26.6667V13.3334C26.6666 11.8667 25.4666 10.6667 24 10.6667ZM12 8.00004C12 5.78671 13.7866 4.00004 16 4.00004C18.2133 4.00004 20 5.78671 20 8.00004V10.6667H12V8.00004ZM24 26.6667H7.99998V13.3334H24V26.6667ZM16 22.6667C17.4666 22.6667 18.6666 21.4667 18.6666 20C18.6666 18.5334 17.4666 17.3334 16 17.3334C14.5333 17.3334 13.3333 18.5334 13.3333 20C13.3333 21.4667 14.5333 22.6667 16 22.6667Z" fill="#585F67"/>
</svg>
