<svg width="20" height="20" viewBox="0 0 20 20" fill="none" xmlns="http://www.w3.org/2000/svg">
<g clip-path="url(#clip0_471_2751)">
<path d="M17.645 5.67682C18.0856 5.23634 18.3332 4.63888 18.3332 4.01587C18.3333 3.39285 18.0859 2.79533 17.6454 2.35474C17.2049 1.91415 16.6075 1.66658 15.9845 1.6665C15.3614 1.66643 14.7639 1.91384 14.3233 2.35432L3.20166 13.4785C3.00818 13.6714 2.86509 13.9089 2.785 14.1702L1.68416 17.7968C1.66263 17.8689 1.661 17.9454 1.67946 18.0184C1.69791 18.0913 1.73576 18.1578 1.78899 18.211C1.84222 18.2641 1.90885 18.3019 1.98179 18.3202C2.05474 18.3386 2.1313 18.3368 2.20333 18.3152L5.83083 17.2152C6.0918 17.1358 6.32931 16.9936 6.5225 16.801L17.645 5.67682Z" stroke="white" stroke-width="2" stroke-linecap="round" stroke-linejoin="round"/>
</g>
<defs>
<clipPath id="clip0_471_2751">
<rect width="20" height="20" fill="white"/>
</clipPath>
</defs>
</svg>
