<svg width="57" height="56" viewBox="0 0 57 56" fill="none" xmlns="http://www.w3.org/2000/svg">
<path d="M52.0001 25.6668V28.0001C51.9765 32.7095 50.5284 37.3016 47.8462 41.1726C45.1639 45.0435 41.373 48.0123 36.972 49.6885C32.5709 51.3647 27.7656 51.6699 23.1878 50.564C18.61 49.4581 14.474 46.9929 11.3236 43.4923C8.17309 39.9918 6.15561 35.6199 5.53636 30.9513C4.9171 26.2827 5.72505 21.536 7.85399 17.3352C9.98294 13.1344 13.3332 9.67613 17.4644 7.41504C21.5956 5.15394 26.3143 4.19587 31.0001 4.66675" stroke="#585F67" stroke-width="2" stroke-linecap="round" stroke-linejoin="round"/>
<path d="M19.3335 32.6665C19.3335 32.6665 22.8335 37.3332 28.6668 37.3332C34.5002 37.3332 38.0002 32.6665 38.0002 32.6665" stroke="#585F67" stroke-width="2" stroke-linecap="round" stroke-linejoin="round"/>
<path d="M21.6667 21H21.6901" stroke="#585F67" stroke-width="2" stroke-linecap="round" stroke-linejoin="round"/>
<path d="M35.6667 21H35.6901" stroke="#585F67" stroke-width="2" stroke-linecap="round" stroke-linejoin="round"/>
<path d="M38 11.6665H52" stroke="#585F67" stroke-width="2" stroke-linecap="round" stroke-linejoin="round"/>
<path d="M45 4.6665V18.6665" stroke="#585F67" stroke-width="2" stroke-linecap="round" stroke-linejoin="round"/>
</svg>
